<?xml version="1.0" standalone="no"?>
<!DOCTYPE svg PUBLIC "-//W3C//DTD SVG 20010904//EN"
 "http://www.w3.org/TR/2001/REC-SVG-20010904/DTD/svg10.dtd">
<svg version="1.0" xmlns="http://www.w3.org/2000/svg"
 width="1440.000000pt" height="1440.000000pt" viewBox="0 0 1440.000000 1440.000000"
 preserveAspectRatio="xMidYMid meet">
<metadata>
Created by potrace 1.11, written by Peter Selinger 2001-2013
</metadata>
<g transform="translate(0.000000,1440.000000) scale(0.100000,-0.100000)"
fill="#000000" stroke="none">
<path d="M7185 13734 c-27 -2 -142 -11 -255 -19 -1176 -89 -1881 -308 -2760
-857 -392 -245 -765 -526 -1115 -839 -157 -140 -464 -453 -594 -604 -572 -667
-893 -1368 -1090 -2385 -109 -561 -169 -1057 -201 -1652 -14 -262 -14 -913 0
-1113 46 -656 166 -995 351 -995 114 0 173 134 198 449 22 272 13 537 -49
1471 -63 954 -74 1276 -49 1555 37 435 265 1139 544 1683 161 314 294 515 480
728 118 134 438 450 615 608 328 293 787 658 874 696 78 35 469 117 511 108 8
-2 -28 -29 -81 -62 -324 -199 -711 -506 -883 -699 -286 -324 -537 -915 -645
-1517 -48 -269 -57 -515 -36 -960 6 -118 15 -321 20 -450 5 -129 17 -314 25
-410 19 -213 62 -601 68 -606 2 -2 234 430 515 960 l510 964 17 138 c73 614
189 1023 324 1136 40 34 96 42 233 35 213 -13 585 -81 1343 -247 1531 -335
1883 -388 2400 -361 340 18 585 44 1245 131 245 32 497 64 560 70 159 17 356
17 402 2 100 -35 193 -223 303 -612 124 -440 169 -688 311 -1725 69 -506 126
-921 128 -922 10 -10 90 379 111 538 104 804 166 1348 172 1509 12 366 -32
666 -163 1098 -112 368 -359 813 -691 1243 -109 141 -361 396 -508 513 -202
161 -462 326 -745 475 -126 66 -132 71 -96 71 63 0 394 -166 721 -363 660
-396 1114 -789 1492 -1291 393 -522 758 -1196 946 -1743 163 -474 212 -827
211 -1523 -1 -565 -34 -825 -219 -1705 -147 -699 -191 -998 -182 -1245 5 -158
18 -217 64 -288 35 -54 98 -87 149 -77 107 20 223 244 318 612 105 407 194
999 243 1613 22 278 25 1189 5 1405 -66 694 -400 1758 -747 2382 -87 156 -161
271 -313 488 -435 620 -848 1028 -1452 1432 -351 234 -642 404 -965 563 -257
126 -693 315 -865 375 -280 97 -690 171 -1125 204 -149 12 -506 21 -580 15z"/>
<path d="M5328 8375 c-247 -49 -653 -253 -812 -407 -79 -76 -74 -120 11 -96
21 5 127 48 235 94 416 176 588 212 798 165 135 -31 305 -94 560 -209 l65 -29
-255 -6 c-616 -16 -1198 -112 -1467 -242 -117 -57 -202 -135 -288 -265 -153
-229 -220 -455 -246 -819 -19 -287 12 -454 132 -692 102 -204 210 -342 362
-464 190 -153 420 -248 687 -285 97 -14 353 -13 455 0 338 46 714 227 1085
524 114 90 345 328 434 444 243 320 423 733 429 983 1 44 5 79 8 79 4 0 12 14
19 31 17 41 70 74 150 95 146 37 326 -14 361 -103 6 -17 17 -23 39 -23 34 0
36 7 16 53 -19 45 -61 81 -131 114 -55 26 -69 28 -180 28 -115 0 -123 -1 -185
-32 -36 -18 -75 -40 -87 -49 -23 -16 -23 -16 -23 23 0 50 -25 145 -52 203 -72
148 -345 288 -666 340 -40 7 -71 14 -68 17 8 8 180 -24 394 -73 587 -135 734
-154 1024 -135 212 14 429 40 683 82 226 37 217 35 213 67 -4 33 6 33 -228 -6
-396 -67 -752 -97 -965 -82 -143 10 -245 29 -555 100 -348 80 -509 110 -615
117 -84 6 -96 9 -180 56 -158 88 -517 261 -655 316 -248 99 -348 116 -502 86z"/>
<path d="M2574 8181 c-183 -84 -396 -481 -504 -936 -115 -487 -96 -946 60
-1426 96 -294 364 -669 532 -745 47 -21 81 -13 112 29 20 27 21 40 20 255 -1
125 -11 366 -23 535 -41 590 -45 780 -30 1287 19 622 18 828 -4 902 -31 103
-84 136 -163 99z"/>
<path d="M10085 7956 c-116 -30 -270 -82 -448 -150 l-142 -54 -210 -6 c-452
-12 -622 -46 -867 -172 -104 -54 -176 -125 -220 -219 -56 -122 -93 -422 -69
-575 30 -194 112 -447 211 -655 214 -447 588 -847 1031 -1104 227 -132 399
-180 671 -188 208 -6 323 9 487 63 196 65 347 160 498 315 99 101 147 163 220
287 167 283 214 465 214 827 1 238 -17 398 -65 590 -39 153 -75 238 -140 329
-95 133 -194 197 -423 272 -200 66 -586 157 -761 180 -31 4 -50 10 -44 16 20
20 177 40 267 35 116 -7 203 -37 357 -123 89 -50 134 -68 170 -72 43 -4 48 -2
48 15 0 71 -223 260 -419 356 -98 48 -111 51 -190 54 -66 2 -107 -2 -176 -21z"/>
<path d="M11885 7941 c-46 -19 -86 -96 -106 -201 -7 -40 -14 -261 -19 -570
-10 -673 -33 -881 -165 -1545 -81 -407 -98 -517 -99 -637 -1 -83 2 -100 20
-125 52 -70 160 -25 320 132 110 109 237 273 309 399 25 45 67 137 94 206 199
505 239 992 125 1532 -81 384 -256 734 -399 799 -44 21 -51 21 -80 10z"/>
<path d="M3285 5524 c-10 -135 0 -437 19 -559 36 -228 109 -472 235 -788 84
-209 305 -715 368 -840 223 -446 748 -1146 1223 -1631 296 -302 459 -432 705
-561 72 -37 186 -99 255 -138 467 -261 649 -313 1190 -337 504 -22 793 25
1185 192 262 112 373 178 562 335 313 259 805 847 1053 1258 309 512 458 812
543 1095 35 116 91 365 85 381 -2 4 -70 -105 -153 -243 -426 -714 -792 -1226
-1072 -1499 -123 -120 -153 -142 -315 -227 -205 -108 -330 -195 -603 -421
-194 -161 -301 -234 -379 -262 -107 -37 -362 -67 -773 -89 -203 -11 -300 -4
-501 36 -416 83 -631 223 -867 563 -114 164 -203 270 -330 389 -103 98 -181
154 -365 264 -182 109 -299 199 -433 332 -401 400 -751 918 -1107 1641 -172
349 -370 813 -475 1110 -16 44 -32 84 -36 88 -4 5 -10 -35 -14 -89z"/>
<path d="M7020 3197 c-112 -46 -576 -304 -566 -314 5 -6 349 26 519 47 87 11
184 20 215 20 78 0 186 -28 392 -101 216 -76 229 -76 480 -19 105 23 224 44
275 47 91 5 286 -15 538 -56 62 -10 113 -17 115 -16 6 5 -281 192 -382 248
-162 92 -217 95 -474 32 -290 -71 -295 -71 -614 36 -314 106 -396 118 -498 76z"/>
<path d="M8084 2537 c-114 -56 -206 -93 -280 -112 -53 -14 -64 -14 -113 1 -61
17 -145 58 -234 111 -32 19 -60 33 -63 31 -4 -4 191 -186 317 -296 l37 -32
210 160 c186 141 233 180 219 180 -2 0 -44 -20 -93 -43z"/>
</g>
</svg>
